<?xml version="1.0" encoding="UTF-8"?>
<svg id="Layer_2" data-name="Layer 2" xmlns="http://www.w3.org/2000/svg" viewBox="0 0 3743.61 1221.09">
  <defs>
    <style>
      .cls-1 {
        stroke: #000;
        stroke-width: 1.73px;
      }

      .cls-1, .cls-2 {
        fill: #0f756d;
      }

      .cls-1, .cls-2, .cls-3 {
        stroke-miterlimit: 10;
      }

      .cls-2 {
        stroke-width: 6.18px;
      }

      .cls-2, .cls-3 {
        stroke: #0f756d;
      }

      .cls-3 {
        fill: #fff;
        stroke-width: 11.67px;
      }
    </style>
  </defs>
  <g id="_Ñëîé_1" data-name="Ñëîé 1">
    <g id="_Ñëîé_2" data-name="Ñëîé 2">
      <g>
        <rect class="cls-3" x="5.84" y="5.84" width="3731.94" height="1209.42" rx="199.18" ry="199.18"/>
        <g>
          <g>
            <path class="cls-2" d="M1166.08,706.07l-34.59,104.74h-44.47l113.14-333.01h51.88l113.64,333.01h-45.95l-35.57-104.74h-118.08ZM1275.28,672.47l-32.61-95.85c-7.41-21.74-12.35-41.5-17.29-60.77h-.99c-4.94,19.76-10.38,40.02-16.8,60.28l-32.61,96.34h100.3Z"/>
            <path class="cls-2" d="M1411.64,649.75c0-30.63-.99-55.34-1.98-78.06h39.03l1.98,41.01h.99c17.79-29.15,45.95-46.44,84.98-46.44,57.81,0,101.28,48.91,101.28,121.54,0,85.97-52.37,128.46-108.7,128.46-31.62,0-59.29-13.83-73.62-37.55h-.99v129.94h-42.98v-258.9ZM1454.62,713.48c0,6.42.99,12.35,1.98,17.79,7.9,30.14,34.09,50.89,65.22,50.89,45.95,0,72.63-37.55,72.63-92.39,0-47.92-25.2-88.93-71.15-88.93-29.64,0-57.31,21.25-65.71,53.85-1.48,5.43-2.96,11.86-2.96,17.79v41.01Z"/>
            <path class="cls-2" d="M1692.75,649.75c0-30.63-.99-55.34-1.98-78.06h39.03l1.98,41.01h.99c17.79-29.15,45.95-46.44,84.98-46.44,57.81,0,101.29,48.91,101.29,121.54,0,85.97-52.37,128.46-108.7,128.46-31.62,0-59.29-13.83-73.62-37.55h-.99v129.94h-42.98v-258.9ZM1735.74,713.48c0,6.42.99,12.35,1.98,17.79,7.9,30.14,34.09,50.89,65.22,50.89,45.95,0,72.63-37.55,72.63-92.39,0-47.92-25.2-88.93-71.15-88.93-29.64,0-57.31,21.25-65.71,53.85-1.48,5.43-2.96,11.86-2.96,17.79v41.01Z"/>
            <path class="cls-2" d="M2074.15,758.44c19.27,11.86,47.43,21.74,77.08,21.74,43.97,0,69.66-23.22,69.66-56.82,0-31.13-17.79-48.91-62.75-66.21-54.35-19.27-87.95-47.43-87.95-94.37,0-51.88,42.98-90.41,107.71-90.41,34.09,0,58.79,7.9,73.62,16.3l-11.86,35.08c-10.87-5.93-33.1-15.81-63.24-15.81-45.45,0-62.75,27.17-62.75,49.9,0,31.13,20.26,46.44,66.21,64.23,56.33,21.74,84.98,48.91,84.98,97.83,0,51.38-38.04,95.85-116.6,95.85-32.12,0-67.19-9.39-84.98-21.24l10.87-36.07Z"/>
            <path class="cls-2" d="M2373.07,503.01v68.68h62.25v33.1h-62.25v128.95c0,29.64,8.4,46.44,32.61,46.44,11.36,0,19.76-1.48,25.2-2.96l1.98,32.61c-8.4,3.46-21.74,5.93-38.54,5.93-20.26,0-36.56-6.42-46.94-18.28-12.35-12.85-16.8-34.09-16.8-62.25v-130.43h-37.06v-33.1h37.06v-57.31l42.49-11.36Z"/>
            <path class="cls-2" d="M2697.67,689.27c0,88.44-61.27,126.98-119.07,126.98-64.72,0-114.63-47.43-114.63-123.02,0-80.04,52.37-126.98,118.58-126.98s115.12,49.9,115.12,123.02ZM2507.94,691.74c0,52.37,30.14,91.9,72.63,91.9s72.63-39.03,72.63-92.89c0-40.51-20.26-91.9-71.64-91.9s-73.62,47.43-73.62,92.89Z"/>
            <path class="cls-2" d="M2752.5,646.29c0-28.16-.49-52.37-1.98-74.61h38.04l1.48,46.94h1.98c10.87-32.12,37.06-52.37,66.21-52.37,4.94,0,8.4.49,12.35,1.48v41.01c-4.45-.99-8.89-1.48-14.82-1.48-30.63,0-52.37,23.22-58.3,55.83-.99,5.93-1.98,12.85-1.98,20.26v127.47h-42.98v-164.53Z"/>
            <path class="cls-2" d="M2933.33,699.15c.99,58.79,38.54,83,82.02,83,31.13,0,49.9-5.43,66.21-12.35l7.41,31.13c-15.32,6.92-41.5,14.82-79.55,14.82-73.62,0-117.59-48.42-117.59-120.55s42.49-128.95,112.16-128.95c78.06,0,98.82,68.68,98.82,112.65,0,8.89-.99,15.81-1.48,20.26h-167.99ZM3060.8,668.03c.49-27.67-11.36-70.65-60.28-70.65-43.97,0-63.24,40.51-66.7,70.65h126.98Z"/>
          </g>
          <g>
            <path class="cls-1" d="M780.58,737.17c-31.12,88.9-94.26,168.23-151.48,168.23-23.02,0-31.46-22.8-79.78-22.8s-68.16,22.8-91.18,22.8c-79.78,0-170.97-153.98-170.97-273.55s79.78-170.97,148.17-170.97c36.81,0,76.48,22.8,113.98,22.8s65.77-22.8,102.58-22.8,80.47,16.18,109.88,51.63c-38.53,21.88-64.29,62-64.29,107.94,0,53.11,34.42,98.48,83.09,116.71Z"/>
            <path class="cls-1" d="M628.75,403.61c7.93-9.94,14.31-21.25,18.69-33.72,6.35-18.11,8.79-38.34,4.47-57.18-.3-1.3-18.14,2.68-19.76,3.13-9.76,2.72-19.25,6.4-28.31,10.94-39.43,19.74-75.71,58.12-78.42,104.05-.36,6.1-.38,12.68,1.11,18.66.24.94,13.17-.14,14.08-.2,34.76-2.49,66.98-19.18,88.14-45.67Z"/>
          </g>
        </g>
      </g>
    </g>
  </g>
</svg>