<?xml version="1.0" encoding="UTF-8"?>
<svg id="Layer_2" data-name="Layer 2" xmlns="http://www.w3.org/2000/svg" viewBox="0 0 3743.61 1221.09">
  <defs>
    <style>
      .cls-1 {
        fill: #0f756d;
        stroke: #0f756d;
        stroke-width: 11.67px;
      }

      .cls-1, .cls-2 {
        stroke-miterlimit: 10;
      }

      .cls-3 {
        fill: #40c3ff;
      }

      .cls-4 {
        fill: #ffc826;
      }

      .cls-5 {
        fill: #0ae577;
      }

      .cls-2 {
        fill: #fff;
        stroke: #fff;
        stroke-width: 6.18px;
      }

      .cls-6 {
        fill: #ff3945;
      }
    </style>
  </defs>
  <g id="_Ñëîé_1" data-name="Ñëîé 1">
    <g id="_Ñëîé_2" data-name="Ñëîé 2">
      <g>
        <rect class="cls-1" x="5.84" y="5.84" width="3731.94" height="1209.42" rx="199.18" ry="199.18"/>
        <g>
          <g>
            <path class="cls-5" d="M299.33,318.51l354.12,193.58-99,96.1-290.54-284.55c8.86-8.83,22.97-11.89,35.42-5.13Z"/>
            <path class="cls-3" d="M554.46,608.19l-293.91,285.29c-3.33-4.76-5.34-10.59-5.34-17.11V344.7c0-8.49,3.4-15.81,8.71-21.06l290.54,284.55Z"/>
            <path class="cls-4" d="M785.74,584.38c20.72,11.3,20.72,41.01,0,52.34l-129.75,70.9-101.53-99.43,99-96.1,132.29,72.29Z"/>
            <path class="cls-6" d="M655.99,707.62l-356.65,194.94c-14.17,7.75-30.54,2.66-38.78-9.08l293.91-285.29,101.53,99.43Z"/>
          </g>
          <g>
            <path class="cls-2" d="M1329.87,716.53c-19.27,6.92-57.31,18.28-102.27,18.28-50.4,0-91.9-12.85-124.51-43.97-28.66-27.67-46.44-72.14-46.44-124.01.49-99.31,68.68-171.94,180.34-171.94,38.54,0,68.68,8.4,83,15.32l-10.37,35.08c-17.79-7.9-40.02-14.33-73.62-14.33-81.03,0-133.89,50.4-133.89,133.89s50.89,134.39,128.46,134.39c28.16,0,47.43-3.95,57.31-8.89v-99.31h-67.69v-34.59h109.69v160.08Z"/>
            <path class="cls-2" d="M1612.96,609.81c0,88.44-61.27,126.98-119.07,126.98-64.72,0-114.63-47.43-114.63-123.02,0-80.04,52.37-126.98,118.58-126.98s115.12,49.9,115.12,123.03ZM1423.23,612.28c0,52.37,30.14,91.9,72.63,91.9s72.63-39.03,72.63-92.89c0-40.51-20.26-91.9-71.64-91.9s-73.62,47.43-73.62,92.89Z"/>
            <path class="cls-2" d="M1884.2,609.81c0,88.44-61.27,126.98-119.07,126.98-64.72,0-114.63-47.43-114.63-123.02,0-80.04,52.37-126.98,118.58-126.98s115.12,49.9,115.12,123.03ZM1694.47,612.28c0,52.37,30.14,91.9,72.63,91.9s72.63-39.03,72.63-92.89c0-40.51-20.26-91.9-71.64-91.9s-73.62,47.43-73.62,92.89Z"/>
            <path class="cls-2" d="M2145.06,492.22c-.99,17.29-1.98,36.56-1.98,65.71v138.84c0,54.84-10.87,88.44-34.09,109.19-23.22,21.74-56.82,28.66-86.96,28.66s-60.28-6.92-79.55-19.76l10.87-33.1c15.81,9.88,40.51,18.78,70.16,18.78,44.47,0,77.08-23.22,77.08-83.5v-26.68h-.99c-13.34,22.23-39.03,40.02-76.09,40.02-59.29,0-101.78-50.4-101.78-116.6,0-81.03,52.87-126.98,107.71-126.98,41.5,0,64.23,21.74,74.61,41.5h.99l1.98-36.07h38.04ZM2100.1,586.59c0-7.41-.49-13.83-2.47-19.76-7.9-25.2-29.15-45.95-60.77-45.95-41.5,0-71.15,35.08-71.15,90.42,0,46.94,23.72,85.97,70.65,85.97,26.68,0,50.89-16.8,60.28-44.47,2.47-7.41,3.46-15.81,3.46-23.22v-42.98Z"/>
            <path class="cls-2" d="M2215.21,380.56h43.48v350.79h-43.48v-350.79Z"/>
            <path class="cls-2" d="M2356.01,619.69c.99,58.8,38.54,83,82.02,83,31.13,0,49.9-5.43,66.2-12.35l7.41,31.13c-15.32,6.92-41.5,14.82-79.55,14.82-73.62,0-117.59-48.42-117.59-120.56s42.49-128.95,112.16-128.95c78.06,0,98.82,68.68,98.82,112.65,0,8.89-.99,15.81-1.48,20.26h-167.99ZM2483.48,588.56c.49-27.67-11.36-70.65-60.28-70.65-43.97,0-63.24,40.51-66.7,70.65h126.98Z"/>
            <path class="cls-2" d="M2685.54,402.29c20.75-3.46,47.92-6.42,82.51-6.42,42.49,0,73.62,9.88,93.38,27.67,18.28,15.81,29.15,40.02,29.15,69.66s-8.89,53.85-25.69,71.15c-22.73,24.21-59.78,36.56-101.78,36.56-12.85,0-24.7-.49-34.59-2.96v133.4h-42.98v-329.05ZM2728.53,562.87c9.39,2.47,21.25,3.46,35.57,3.46,51.88,0,83.5-25.2,83.5-71.15s-31.13-65.22-78.56-65.22c-18.78,0-33.1,1.48-40.51,3.46v129.45Z"/>
            <path class="cls-2" d="M2944.44,380.56h43.48v350.79h-43.48v-350.79Z"/>
            <path class="cls-2" d="M3193.44,731.35l-3.46-30.14h-1.48c-13.34,18.77-39.03,35.57-73.12,35.57-48.42,0-73.12-34.09-73.12-68.68,0-57.81,51.38-89.43,143.78-88.93v-4.94c0-19.76-5.43-55.34-54.35-55.34-22.23,0-45.45,6.92-62.25,17.79l-9.88-28.66c19.76-12.85,48.42-21.25,78.56-21.25,73.12,0,90.91,49.9,90.91,97.83v89.43c0,20.75.99,41.01,3.95,57.31h-39.53ZM3187.02,609.31c-47.43-.99-101.29,7.41-101.29,53.85,0,28.16,18.77,41.5,41.01,41.5,31.13,0,50.89-19.76,57.81-40.02,1.48-4.45,2.47-9.39,2.47-13.83v-41.5Z"/>
            <path class="cls-2" d="M3311.03,492.22l52.37,141.31c5.43,15.81,11.36,34.59,15.32,48.91h.99c4.45-14.33,9.39-32.61,15.32-49.9l47.43-140.32h45.95l-65.22,170.46c-31.13,82.02-52.37,124.01-82.02,149.71-21.24,18.77-42.49,26.19-53.36,28.16l-10.87-36.56c10.87-3.46,25.2-10.37,38.04-21.24,11.86-9.39,26.68-26.19,36.56-48.42,1.98-4.45,3.46-7.91,3.46-10.38s-.99-5.93-2.96-11.36l-88.44-220.36h47.43Z"/>
          </g>
        </g>
      </g>
    </g>
  </g>
</svg>