<svg xmlns="http://www.w3.org/2000/svg" viewBox="0 0 1080 1080" xmlns:v="https://vecta.io/nano"><path d="M447.89 639.7l27.24 34.28 33.29 42.56 31.42 40.45c-33.32 42.43-66.54 81.57-112.11 111.71-57.19 37.83-126.59 48.51-193.28 31.72-48.24-12.15-90.06-38.06-124.2-73.88-59.87-62.81-85.06-148.52-70.53-234.32 22.15-130.84 137.64-223.03 270.69-221.49-1.34 23.16-1.08 44.63 4.83 66.04l12.72 46.09 19.06 44.13c-31.35-14.58-63.48-17.46-93.25-5.16-27.8 11.48-47.92 29.48-62.52 55.51-34.17 60.9-13 138.68 47.69 174.09 41.14 24.01 90.72 17.31 126.54-14.33 22.16-19.57 39.17-42.98 57.69-66.3l24.71-31.12zm81.78-134.26l-92.31 118.17c-24.55-31.72-47.41-62.15-67.75-95.83-32.73-54.18-48.14-115.9-38.02-178.25 9.9-61.01 52.66-121.96 108.58-151.64-23.07 31.05-34.99 64.72-31.25 102.17 8.26 60.22 55.34 123.99 93.74 171.77l27 33.6z" fill="#ec4699"/><path d="M612.05 694.94l31.9-41.33 30.58 40.15 21.43 25.11c8.02 9.4 16.06 16.77 25.88 24.21 40.86 30.96 96.08 30.94 136.25-1.93 31.22-25.54 48.55-64.34 47.51-104.63-1.01-39.01-19.84-76.77-52.15-100.64-34.64-25.59-77.87-28.79-117.88-9.45-.61-7.46 4.3-12.82 7.27-19.21 19.8-42.65 30.25-88.28 27.57-136.45 143.95-.67 262.04 106.04 273.09 249.16 12.72 164.92-129.57 308.93-292.91 285.53C665.16 893.22 604.88 836.2 552.78 770l59.28-75.06zM539.85 757l-31.42-40.45-33.29-42.56-27.24-34.28 5.23-8.16 91.88-116.83c30.07-38.24 59.77-74.79 86.25-115.49 43.26-66.82 62.63-132.09 9.54-201.6 74.18 42.4 116.99 124.49 110.47 208.96-3.67 47.48-20.55 90.51-45.95 130.5-25.23 39.74-52.57 76.13-81.69 113.22L539.86 757zm30.91-120.81c0-16.74-13.57-30.3-30.32-30.3s-30.32 13.57-30.32 30.3 13.57 30.3 30.32 30.3 30.32-13.57 30.32-30.3zm73.22-301.22c-27.07-32.68-63.71-50.25-103.52-50.34-39.45-.09-76.4 18.08-103.09 50.29-16.95-38.08-14.41-81.67 9.11-115.14 23.01-32.74 60.35-49.63 99.98-47.79 50.79 1.97 92.38 35.1 104.82 84.26 5.85 25.56 4.43 52.56-7.31 78.72z" fill="#0f756d"/></svg>