<svg xmlns="http://www.w3.org/2000/svg" viewBox="0 0 1080 172.98" xmlns:v="https://vecta.io/nano"><style><![CDATA[.H{fill:#0f756d}.I{font-family:FivoSansModern-Regular,Fivo Sans Modern}.J{font-family:FivoSansModern-Bold,Fivo Sans Modern}]]></style><path d="M78.62 104.3l4.87 6.12 5.95 7.6 5.61 7.23c-5.95 7.58-11.89 14.57-20.03 19.95-10.22 6.76-22.61 8.67-34.52 5.67-8.62-2.17-16.09-6.8-22.18-13.2-10.69-11.22-15.19-26.53-12.6-41.85C9.68 72.45 30.3 55.98 54.07 56.26c-.24 4.14-.19 7.97.86 11.8l2.27 8.23 3.4 7.88c-5.6-2.6-11.34-3.12-16.66-.92-4.97 2.05-8.56 5.27-11.17 9.92-6.1 10.88-2.32 24.77 8.52 31.1 7.35 4.29 16.2 3.09 22.6-2.56 3.96-3.5 7-7.68 10.3-11.84l4.41-5.56zm14.61-23.98l-16.49 21.11c-4.39-5.67-8.47-11.1-12.1-17.12-5.85-9.68-8.6-20.7-6.79-31.84 1.77-10.9 9.41-21.78 19.39-27.08-4.12 5.55-6.25 11.56-5.58 18.25 1.48 10.76 9.88 22.15 16.74 30.68l4.82 6z" fill="#ec4699"/><path d="M107.94 114.16l5.7-7.38 5.46 7.17 3.83 4.49c1.43 1.68 2.87 3 4.62 4.32 7.3 5.53 17.16 5.53 24.34-.34 5.58-4.56 8.67-11.49 8.49-18.69-.18-6.97-3.54-13.71-9.31-17.98-6.19-4.57-13.91-5.14-21.06-1.69-.11-1.33.77-2.29 1.3-3.43 3.54-7.62 5.4-15.77 4.92-24.37 25.71-.12 46.81 18.94 48.78 44.5 2.27 29.46-23.14 55.18-52.32 51-15.26-2.19-26.03-12.37-35.33-24.2l10.59-13.41zm-12.89 11.09l-5.61-7.23-5.95-7.6-4.87-6.12.93-1.46 16.41-20.87c5.37-6.83 10.68-13.36 15.41-20.63 7.73-11.94 11.19-23.59 1.7-36.01 13.25 7.57 20.9 22.24 19.73 37.32-.65 8.48-3.67 16.17-8.21 23.31-4.51 7.1-9.39 13.6-14.59 20.22l-14.96 19.06zm5.52-21.58a5.41 5.41 0 0 0-10.82 0 5.41 5.41 0 0 0 10.82 0zm13.08-53.8c-4.83-5.84-11.38-8.98-18.49-8.99-7.05-.02-13.65 3.23-18.41 8.98-3.03-6.8-2.57-14.59 1.63-20.57 4.11-5.85 10.78-8.86 17.86-8.54 9.07.35 16.5 6.27 18.72 15.05 1.04 4.57.79 9.39-1.3 14.06z" class="H"/><text transform="matrix(.95 0 0 1 243.84 125.25)" font-size="119.42"><tspan x="0" y="0" class="H I">Breast</tspan><tspan x="367.81" font-weight="700" y="0" class="H J">Guard</tspan><tspan x="754" font-weight="700" fill="#ec4699" y="0" class="J">AI</tspan></text></svg>